Coordinates
version=1
nRows=13
nColumns=40
inDegrees=yes

Units are S.I. units (second, meters, Newtons, ...)
Angles are in degrees.

endheader
time	pelvis_tilt	pelvis_list	pelvis_rotation	pelvis_tx	pelvis_ty	pelvis_tz	hip_flexion_r	hip_adduction_r	hip_rotation_r	knee_angle_r	knee_angle_r_beta	ankle_angle_r	subtalar_angle_r	mtp_angle_r	hip_flexion_l	hip_adduction_l	hip_rotation_l	knee_angle_l	knee_angle_l_beta	ankle_angle_l	subtalar_angle_l	mtp_angle_l	lumbar_extension	lumbar_bending	lumbar_rotation	arm_flex_r	arm_add_r	arm_rot_r	elbow_flex_r	pro_sup_r	wrist_flex_r	wrist_dev_r	arm_flex_l	arm_add_l	arm_rot_l	elbow_flex_l	pro_sup_l	wrist_flex_l	wrist_dev_l
     21.72250000	     -2.39584970	     -6.96259687	      1.99246909	      1.10342539	      0.93457001	      0.48957127	      4.47864126	      6.54237846	    -19.25584924	      8.34941648	      8.34941648	      9.84952764	      9.19738733	     -6.33957660	     33.62856933	    -15.46121001	     -2.28136283	     51.43693073	     51.43693073	     10.73290202	    -18.48429050	     15.60608577	    -10.59042673	      8.92470049	      4.41832489	     21.30672824	    -14.24081745	     -3.05715927	     43.30294658	     45.76195250	      0.00000000	      0.00000000	     -0.00101107	     -6.49910253	      0.65940382	     32.81676112	     46.53032339	      0.00000000	      0.00000000
     21.73385714	     -2.50292217	     -6.89014140	      2.14582500	      1.10234918	      0.93409392	      0.48959368	      3.77719062	      6.60248493	    -19.12792515	      7.84840782	      7.84840782	     10.13182102	      9.16038091	     -6.44523215	     34.09362653	    -14.92345337	     -2.14203482	     47.94387360	     47.94387360	     10.18743556	    -18.21004560	     15.85857169	    -10.56452170	      8.76848966	      4.25187317	     23.58617291	    -14.24210863	     -2.59326429	     45.54026530	     45.66705164	      0.00000000	      0.00000000	     -1.43370417	     -6.50444520	      0.76956435	     30.96574881	     46.48362936	      0.00000000	      0.00000000
     21.74521429	     -2.61230172	     -7.02641704	      2.33599565	      1.10139534	      0.93329491	      0.48948449	      3.05422193	      6.90394193	    -18.96756010	      7.27178087	      7.27178087	     10.23882261	      8.94620691	     -6.91393191	     34.47654741	    -14.58217140	     -1.91707022	     44.27247379	     44.27247379	      8.96135509	    -17.85956182	     14.11326254	    -10.54944520	      8.91810622	      4.77443933	     24.31611727	    -16.03735856	      1.21386046	     51.61954846	     45.27381685	      0.00000000	      0.00000000	     -1.46823892	     -6.08760112	      0.71590277	     26.27788800	     46.46638472	      0.00000000	      0.00000000
     21.75657143	     -2.69852119	     -6.99596691	      2.55989608	      1.10058952	      0.93257493	      0.48918947	      2.40451660	      6.96794936	    -18.87170547	      6.94657157	      6.94657157	     10.60539348	      8.75259037	     -6.98338741	     34.69425955	    -14.00322624	     -1.68920531	     40.53683707	     40.53683707	      8.45131969	    -17.18379740	     14.45513215	    -10.47934395	      8.82119937	      4.33177287	     26.52981749	    -15.73794194	      1.46529487	     54.08426722	     45.18880639	      0.00000000	      0.00000000	     -3.11157173	     -6.22639889	      0.72408393	     25.04028475	     46.43163258	      0.00000000	      0.00000000
     21.76792857	     -2.77071967	     -7.09311177	      2.85368274	      1.09992691	      0.93162665	      0.48876456	      1.72254355	      7.18352829	    -18.74621671	      6.58478093	      6.58478093	     10.95704101	      8.46058149	     -7.00646722	     34.88288770	    -13.53892114	     -1.37845813	     36.85581897	     36.85581897	      7.87443882	    -16.19221449	     14.31215372	    -10.46038284	      8.87037858	      3.71926058	     28.37015019	    -15.66131934	      2.60471987	     57.92426146	     45.02017987	      0.00000000	      0.00000000	     -4.66114478	     -6.28506714	      0.73996742	     23.49874621	     46.40022328	      0.00000000	      0.00000000
     21.77928571	     -2.90966697	     -7.27257524	      3.15532099	      1.09944237	      0.93039816	      0.48824411	      1.11856689	      7.49157442	    -18.53239605	      6.24605718	      6.24605718	     11.35991615	      7.97445103	     -6.91119984	     35.06591781	    -13.18110335	     -1.15997251	     33.19030626	     33.19030626	      6.87191779	    -14.92053130	     12.88339771	    -10.38747702	      9.01572343	      3.98199093	     28.82963656	    -17.61324792	      6.16405643	     64.91050867	     44.66366332	      0.00000000	      0.00000000	     -5.57288311	     -6.23188741	      0.65564096	     21.77638822	     46.40255063	      0.00000000	      0.00000000
     21.79064286	     -2.98155609	     -7.23180572	      3.49517951	      1.09910131	      0.92939216	      0.48752273	      0.53739400	      7.48989198	    -18.45789863	      6.15581278	      6.15581278	     11.83417400	      7.69767661	     -6.97106817	     35.03960390	    -12.63037817	     -1.23921427	     29.63625494	     29.63625494	      6.53343784	    -13.15730573	     13.16842010	    -10.29214399	      8.88771966	      3.64048225	     30.46550010	    -17.41403575	      6.58700862	     67.54208653	     44.57280468	      0.00000000	      0.00000000	     -7.03468121	     -6.40876130	      0.65548546	     20.90606901	     46.37491878	      0.00000000	      0.00000000
     21.80200000	     -2.99870662	     -7.42110193	      3.91310027	      1.09911897	      0.92807787	      0.48660654	     -0.15170409	      7.78587722	    -18.34505853	      5.97786764	      5.97786764	     12.41332286	      7.13064013	     -6.53132944	     35.04374593	    -12.27436922	     -1.21414483	     26.45394637	     26.45394637	      5.96590105	    -11.38403941	     12.22032468	    -10.32273888	      9.07304015	      3.64601410	     30.81970523	    -19.46018718	     10.03644483	     75.23287788	     44.24125834	      0.00000000	      0.00000000	     -8.21729737	     -6.50510596	      0.65001726	     20.11948800	     46.35190492	      0.00000000	      0.00000000
     21.81335714	     -3.04211938	     -7.51199676	      4.34410103	      1.09926872	      0.92675436	      0.48555765	     -0.76614567	      7.93923741	    -18.30078727	      5.92254437	      5.92254437	     13.00738637	      6.71147003	     -6.19351952	     35.03275767	    -11.83256526	     -1.40084850	     23.60157697	     23.60157697	      5.69882720	     -9.48679389	     12.08343903	    -10.23633175	      9.11162122	      3.38732268	     31.58573321	    -20.37622159	     11.95612866	     80.57478928	     44.05186070	      0.00000000	      0.00000000	     -9.59165308	     -6.71371334	      0.72494715	     19.63795916	     46.30220044	      0.00000000	      0.00000000
     21.82471429	     -3.05413698	     -7.56925224	      4.83416298	      1.09962419	      0.92535748	      0.48427271	     -1.39560016	      8.04372038	    -18.32044916	      5.93654209	      5.93654209	     13.61469857	      6.26460949	     -5.93757505	     35.02055317	    -11.33203961	     -1.66804599	     21.24191128	     21.24191128	      5.64714335	     -7.71217109	     12.21521564	    -10.14115684	      9.12498867	      2.73614154	     32.52829212	    -20.84239062	     13.73053569	     85.45200114	     43.87007884	      0.00000000	      0.00000000	    -11.10109843	     -6.85621845	      0.78491104	     19.32132682	     46.25008892	      0.00000000	      0.00000000
     21.83607143	     -3.11290953	     -7.58446087	      5.28983767	      1.10020187	      0.92389397	      0.48288097	     -1.97454974	      8.09432516	    -18.29714495	      5.99462609	      5.99462609	     14.31661202	      5.82636701	     -5.38696232	     35.01554356	    -10.81023704	     -2.11252605	     19.30540749	     19.30540749	      5.57466265	     -6.16194041	     12.30636678	     -9.98563571	      9.06093045	      2.69547741	     32.86139654	    -22.54467513	     16.34732380	     91.01658974	     43.66114989	      0.00000000	      0.00000000	    -12.44673067	     -7.17190296	      0.89169147	     19.56403356	     46.18112055	      0.00000000	      0.00000000
     21.84742857	     -3.15225435	     -7.55742340	      5.76281704	      1.10099177	      0.92236280	      0.48128187	     -2.55885293	      8.07998861	    -18.33471587	      6.12170708	      6.12170708	     15.02007169	      5.42236832	     -4.90798407	     35.00427321	    -10.23887863	     -2.57941941	     17.91711543	     17.91711543	      5.59129280	     -5.03537161	     12.31251700	     -9.79408789	      8.97184025	      2.33538892	     33.32592404	    -23.66001042	     18.53234828	     95.97629978	     43.48493072	      0.00000000	      0.00000000	    -13.81176632	     -7.40463152	      1.05089616	     19.73713400	     46.10126183	      0.00000000	      0.00000000
     21.85878571	     -3.20494903	     -7.51337239	      6.19052225	      1.10193129	      0.92074502	      0.47960486	     -3.11016133	      8.03279655	    -18.38593362	      6.31432150	      6.31432150	     15.72245105	      5.03348891	     -4.40922537	     35.01831493	     -9.68211105	     -3.06617706	     17.07570155	     17.07570155	      5.58802613	     -4.37276766	     12.16414960	     -9.60572132	      8.85500032	      2.06600870	     33.72851930	    -25.01877264	     20.96187757	    100.95906685	     43.29753677	      0.00000000	      0.00000000	    -15.18126370	     -7.67710141	      1.18308794	     20.03774415	     46.02689804	      0.00000000	      0.00000000
